<svg xmlns="http://www.w3.org/2000/svg" viewBox="2 8 517 125" fill="none">
  <!-- Cruxible wordmark lockup - F6 mark (stroke 11) + Instrument Sans 600
       converted to paths (tracking -0.02em, cap height 66 on the mark's
       140 grid, baseline on the mark's optical midline). Black - for light backgrounds. -->
  <g stroke="#0B0B0D" stroke-width="11" stroke-linecap="butt" stroke-linejoin="round" fill="none">
    <path d="M 86 30.2 L 93 30.2 L 116 70 L 93 109.8 L 86 109.8"/>
    <path d="M 64 109.8 L 47 109.8 L 37 92.5"/>
    <path d="M 37 47.5 L 47 30.2 L 64 30.2"/>
  </g>
  <g stroke="#0B0B0D" stroke-width="11" stroke-linecap="round" stroke-linejoin="round" fill="none">
    <path d="M 37 47.5 L 31.6 56.8"/>
    <path d="M 37 92.5 L 31.6 83.2"/>
    <path d="M 75 14.2 L 75 52 L 47 70 L 75 88 L 75 125.8"/>
    <path d="M 47 70 L 8 70"/>
  </g>
  <g fill="#0B0B0D" transform="translate(160,104) scale(0.091667)">
    <path d="M391.0 10Q314.333251953125 10.0 249.49984741210938 -17.5Q184.66644287109375 -45.0 136.99972534179688 -94.83334350585938Q89.3330078125 -144.66668701171875 62.9996337890625 -212.8333740234375Q36.666259765625 -281.00006103515625 36.666259765625 -362.00006103515625Q36.666259765625 -443.00006103515625 62.666290283203125 -510.1667175292969Q88.66632080078125 -577.3333740234375 136.1663818359375 -626.8333740234375Q183.66644287109375 -676.3333740234375 248.49984741210938 -703.1666870117188Q313.333251953125 -730.0 390.66668701171875 -730.0Q477.00018310546875 -730.0 546.1669921875 -695.9999694824219Q615.3338012695312 -661.9999389648438 659.5005493164062 -600.3332214355469Q703.6672973632812 -538.66650390625 713.6672973632812 -455.999755859375H586.3325805664062Q573.6658935546875 -536.99951171875 520.8327331542969 -580.499267578125Q467.99957275390625 -623.9990234375 391.66668701171875 -623.9990234375Q325.33367919921875 -623.9990234375 275.0005798339844 -592.1658630371094Q224.66748046875 -560.3327026367188 196.6676025390625 -501.83294677734375Q168.667724609375 -443.33319091796875 168.667724609375 -362.666748046875Q168.667724609375 -281.3336181640625 197.00094604492188 -221.50048828125Q225.33416748046875 -161.6673583984375 276.0006103515625 -128.83416748046875Q326.66705322265625 -96.0009765625 392.666748046875 -96.0009765625Q466.99951171875 -96.0009765625 520.1659851074219 -139.33404541015625Q573.3324584960938 -182.6671142578125 586.9992065429688 -263.33355712890625H715.6672973632812Q703.667236328125 -180.66680908203125 659.1671447753906 -119.00009155273438Q614.6670532226562 -57.3333740234375 545.8335876464844 -23.66668701171875Q477.0001220703125 10.0 391.0 10Z"/>
    <path d="M793.666259765625 0.0V-510.0H916.667724609375V-386.6668701171875H920.3343505859375V0.0ZM920.3343505859375 -266.0 907.3343505859375 -387.0Q925.3343505859375 -452.0 968.0009155273438 -486.0Q1010.66748046875 -520.0 1071.3341674804688 -520.0Q1092.3340454101562 -520.0 1101.3340454101562 -516.0V-396.99871826171875Q1096.3340454101562 -398.99871826171875 1087.3340454101562 -399.49871826171875Q1078.3340454101562 -399.99871826171875 1065.3340454101562 -399.99871826171875Q992.0007934570312 -399.99871826171875 956.1675720214844 -367.83245849609375Q920.3343505859375 -335.66619873046875 920.3343505859375 -266.0Z"/>
    <path d="M1322.9995727539062 10.0Q1270.3328247070312 10.0 1231.6661682128906 -12.50006103515625Q1192.99951171875 -35.0001220703125 1172.3328857421875 -73.83349609375Q1151.666259765625 -112.6668701171875 1151.666259765625 -161.6668701171875V-510.0H1278.3343505859375V-188.0003662109375Q1278.3343505859375 -140.6673583984375 1301.8341979980469 -117.0008544921875Q1325.3340454101562 -93.3343505859375 1368.333740234375 -93.3343505859375Q1407.0001220703125 -93.3343505859375 1436.6665649414062 -111.334228515625Q1466.3330078125 -129.3341064453125 1483.8328857421875 -161.50054931640625Q1501.332763671875 -193.6669921875 1501.332763671875 -235.3333740234375L1514.332763671875 -113.0Q1489.332763671875 -57.3333740234375 1439.6661987304688 -23.66668701171875Q1389.9996337890625 10.0 1322.9995727539062 10.0ZM1504.9993896484375 0.0V-120.0H1501.332763671875V-510.0H1628.0008544921875V0.0Z"/>
    <path d="M2068.3330688476562 0.0 1911.3334350585938 -228.33306884765625 1699.3331298828125 -510.0H1842.3346557617188L1984.334228515625 -303.0003662109375L2211.3345947265625 0.0ZM1921.000244140625 -307.0006103515625 2064.3330688476562 -510.0H2203.6679077148438L1982.3341674804688 -218.99957275390625ZM1971.000732421875 -213.332763671875 1816.66796875 0.0H1677.66650390625L1910.666748046875 -302.333740234375Z"/>
    <path d="M2263.666259765625 0.0V-510.0H2390.3343505859375V0.0ZM2258.3329467773438 -593.9990234375V-733.333740234375H2395.6676635742188V-593.9990234375Z"/>
    <path d="M2795.0007934570312 9.66668701171875Q2722.3341064453125 9.66668701171875 2675.667510986328 -24.6666259765625Q2629.0009155273438 -58.99993896484375 2617.6677856445312 -119.66650390625L2626.667724609375 -120.99981689453125V0.0H2503.666259765625V-720.0H2630.3343505859375V-395.0001220703125L2620.667724609375 -397.33343505859375Q2634.334228515625 -454.3333740234375 2682.8341674804688 -487.16668701171875Q2731.3341064453125 -520.0 2802.66748046875 -520.0Q2871.3341674804688 -520.0 2921.8341674804688 -487.3333435058594Q2972.3341674804688 -454.66668701171875 3000.0008239746094 -395.66668701171875Q3027.66748046875 -336.66668701171875 3027.66748046875 -257.0Q3027.66748046875 -176.33331298828125 2998.66748046875 -116.33331298828125Q2969.66748046875 -56.33331298828125 2917.66748046875 -23.33331298828125Q2865.66748046875 9.66668701171875 2795.0007934570312 9.66668701171875ZM2763.0001831054688 -93.66766357421875Q2823.6663818359375 -93.66766357421875 2859.99951171875 -136.50070190429688Q2896.3326416015625 -179.333740234375 2896.3326416015625 -256.33331298828125Q2896.3326416015625 -332.99957275390625 2859.6661682128906 -374.8326110839844Q2822.9996948242188 -416.6656494140625 2761.6668090820312 -416.6656494140625Q2701.6672973632812 -416.6656494140625 2664.667510986328 -374.16595458984375Q2627.667724609375 -331.666259765625 2627.667724609375 -254.66668701171875Q2627.667724609375 -178.333740234375 2664.667510986328 -136.00070190429688Q2701.6672973632812 -93.66766357421875 2763.0001831054688 -93.66766357421875Z"/>
    <path d="M3104.666259765625 0.0V-720.0H3231.3343505859375V0.0Z"/>
    <path d="M3574.3335571289062 10.0Q3493.3333129882812 10.0 3432.66650390625 -23.83331298828125Q3371.9996948242188 -57.6666259765625 3338.332977294922 -117.6666259765625Q3304.666259765625 -177.6666259765625 3304.666259765625 -255.6666259765625Q3304.666259765625 -334.33331298828125 3338.1663208007812 -393.83331298828125Q3371.6663818359375 -453.33331298828125 3431.9998168945312 -486.6666564941406Q3492.333251953125 -520.0 3571.666748046875 -520.0Q3648.000244140625 -520.0 3704.167022705078 -488.33331298828125Q3760.3338012695312 -456.6666259765625 3791.167205810547 -399.99993896484375Q3822.0006103515625 -343.333251953125 3822.0006103515625 -266.66656494140625Q3822.0006103515625 -252.66644287109375 3821.167266845703 -240.66635131835938Q3820.3339233398438 -228.666259765625 3818.3339233398438 -216.99957275390625H3383.33349609375V-305.33355712890625H3721.3324584960938L3695.3324584960938 -281.0006103515625Q3695.3324584960938 -353.0 3662.166015625 -389.166259765625Q3628.9995727539062 -425.33251953125 3570.3333740234375 -425.33251953125Q3505.6670532226562 -425.33251953125 3468.5006713867188 -381.1661071777344Q3431.3342895507812 -336.99969482421875 3431.3342895507812 -253.9998779296875Q3431.3342895507812 -171.66680908203125 3468.5006713867188 -128.16714477539062Q3505.6670532226562 -84.66748046875 3575.0001220703125 -84.66748046875Q3615.3331909179688 -84.66748046875 3644.9996337890625 -99.83395385742188Q3674.6660766601562 -115.00042724609375 3688.9993286132812 -146.33349609375H3808.333984375Q3783.333984375 -73.666748046875 3723.5006103515625 -31.8333740234375Q3663.667236328125 10.0 3574.3335571289062 10.0Z"/>
  </g>
</svg>
